<svg width="28" height="28" viewBox="0 0 28 28" fill="none" xmlns="http://www.w3.org/2000/svg">
<g opacity="0.7" clip-path="url(#clip0_92_433)">
<path d="M14 2.42593C7.60765 2.42593 2.42593 7.60764 2.42593 14C2.42593 19.7766 6.65857 24.5648 12.1921 25.434V17.3449H9.25232V14H12.1921V11.4502C12.1921 8.54977 13.919 6.94792 16.5637 6.94792C17.8299 6.94792 19.1539 7.17361 19.1539 7.17361V10.0208H17.6956C16.257 10.0208 15.809 10.9132 15.809 11.8287V14H19.0185L18.5058 17.3449H15.809V25.434C21.3414 24.566 25.5741 19.7755 25.5741 14C25.5741 7.60764 20.3924 2.42593 14 2.42593Z" fill="#808B94"/>
</g>
<defs>
<clipPath id="clip0_92_433">
<rect width="27.7778" height="27.7778" fill="white" transform="translate(0.111115 0.111115)"/>
</clipPath>
</defs>
</svg>
