<svg width="36" height="36" viewBox="0 0 36 36" fill="none" xmlns="http://www.w3.org/2000/svg">
<circle cx="18" cy="18" r="17.25" stroke="#808B94" stroke-width="1.5"/>
<g clip-path="url(#clip0_404_1627)">
<path d="M24.1467 18.3467L15.3142 24.235C15.2514 24.2768 15.1785 24.3007 15.1032 24.3043C15.028 24.3079 14.9531 24.291 14.8867 24.2554C14.8202 24.2199 14.7647 24.1669 14.7259 24.1023C14.6872 24.0376 14.6667 23.9637 14.6667 23.8883V12.1117C14.6667 12.0363 14.6872 11.9624 14.7259 11.8977C14.7647 11.8331 14.8202 11.7801 14.8867 11.7445C14.9531 11.709 15.028 11.6921 15.1032 11.6957C15.1785 11.6993 15.2514 11.7232 15.3142 11.765L24.1467 17.6533C24.2037 17.6914 24.2505 17.7429 24.2829 17.8034C24.3152 17.8639 24.3322 17.9314 24.3322 18C24.3322 18.0686 24.3152 18.1361 24.2829 18.1966C24.2505 18.2571 24.2037 18.3086 24.1467 18.3467Z" fill="#808B94"/>
</g>
<defs>
<clipPath id="clip0_404_1627">
<rect width="20" height="20" fill="white" transform="translate(8 8)"/>
</clipPath>
</defs>
</svg>
