<svg width="85" height="46" viewBox="0 0 85 46" fill="none" xmlns="http://www.w3.org/2000/svg">
<mask id="path-1-inside-1_92_599" fill="white">
<rect y="8" width="32" height="31" rx="3"/>
</mask>
<rect y="8" width="32" height="31" rx="3" fill="white" stroke="#003C68" stroke-width="10" mask="url(#path-1-inside-1_92_599)"/>
<rect x="35" y="8" width="7" height="31" rx="3" fill="#003C68"/>
<rect x="45" y="8" width="13" height="10" rx="3" fill="#003C68"/>
<rect x="45" y="21" width="13" height="18" rx="3" fill="#003C68"/>
<path d="M77.3942 17.3118C77.2862 16.2232 76.8229 15.3776 76.0043 14.7749C75.1856 14.1721 74.0746 13.8707 72.6712 13.8707C71.7176 13.8707 70.9124 14.0057 70.2557 14.2756C69.599 14.5365 69.0952 14.9008 68.7443 15.3686C68.4025 15.8364 68.2315 16.3672 68.2315 16.9609C68.2135 17.4557 68.317 17.8875 68.5419 18.2564C68.7758 18.6252 69.0952 18.9446 69.5 19.2145C69.9048 19.4754 70.3726 19.7048 70.9034 19.9027C71.4342 20.0916 72.0009 20.2536 72.6037 20.3885L75.0866 20.9822C76.2921 21.2521 77.3987 21.612 78.4062 22.0618C79.4138 22.5116 80.2865 23.0649 81.0241 23.7216C81.7618 24.3783 82.3331 25.152 82.7379 26.0426C83.1518 26.9332 83.3632 27.9543 83.3722 29.1058C83.3632 30.7971 82.9313 32.2635 82.0767 33.505C81.2311 34.7375 80.0076 35.6955 78.4062 36.3793C76.8139 37.054 74.8932 37.3913 72.6442 37.3913C70.4131 37.3913 68.4699 37.0495 66.8146 36.3658C65.1683 35.6821 63.8819 34.67 62.9553 33.3295C62.0376 31.9801 61.5563 30.3113 61.5114 28.3232H67.1655C67.2285 29.2498 67.4938 30.0234 67.9616 30.6442C68.4384 31.2559 69.0727 31.7192 69.8643 32.0341C70.665 32.34 71.5691 32.4929 72.5767 32.4929C73.5663 32.4929 74.4254 32.349 75.1541 32.0611C75.8918 31.7732 76.4631 31.3729 76.8679 30.8601C77.2727 30.3473 77.4751 29.758 77.4751 29.0923C77.4751 28.4716 77.2907 27.9498 76.9219 27.527C76.562 27.1042 76.0313 26.7443 75.3295 26.4474C74.6368 26.1506 73.7867 25.8807 72.7791 25.6378L69.7699 24.8821C67.4399 24.3153 65.6001 23.4292 64.2507 22.2237C62.9013 21.0182 62.2311 19.3944 62.2401 17.3523C62.2311 15.679 62.6764 14.2171 63.576 12.9666C64.4846 11.7161 65.7306 10.7401 67.3139 10.0384C68.8973 9.33665 70.6965 8.98579 72.7116 8.98579C74.7628 8.98579 76.553 9.33665 78.0824 10.0384C79.6207 10.7401 80.8172 11.7161 81.6719 12.9666C82.5265 14.2171 82.9673 15.6655 82.9943 17.3118H77.3942Z" fill="#E29500"/>
</svg>
