<svg width="130" height="70" viewBox="0 0 130 70" fill="none" xmlns="http://www.w3.org/2000/svg">
<mask id="path-1-inside-1_92_600" fill="white">
<rect y="12.1411" width="48.5647" height="47.0471" rx="4.55294"/>
</mask>
<rect y="12.1411" width="48.5647" height="47.0471" rx="4.55294" fill="#122131" stroke="#003C68" stroke-width="15.1765" mask="url(#path-1-inside-1_92_600)"/>
<rect x="53.1177" y="12.1411" width="10.6235" height="47.0471" rx="4.55294" fill="#003C68"/>
<rect x="68.2941" y="12.1411" width="19.7294" height="15.1765" rx="4.55294" fill="#003C68"/>
<rect x="68.2941" y="31.8706" width="19.7294" height="27.3176" rx="4.55294" fill="#003C68"/>
<path d="M117.457 26.1202C117.293 24.4682 116.59 23.1848 115.348 22.2701C114.105 21.3553 112.419 20.8979 110.289 20.8979C108.842 20.8979 107.62 21.1027 106.623 21.5123C105.627 21.9083 104.862 22.4612 104.33 23.1712C103.811 23.8811 103.551 24.6867 103.551 25.5878C103.524 26.3387 103.681 26.994 104.022 27.5538C104.377 28.1136 104.862 28.5983 105.476 29.0079C106.091 29.4038 106.801 29.752 107.606 30.0523C108.412 30.339 109.272 30.5848 110.187 30.7896L113.955 31.6907C115.785 32.1003 117.464 32.6464 118.993 33.3291C120.522 34.0117 121.847 34.8514 122.966 35.8481C124.086 36.8447 124.953 38.0189 125.567 39.3706C126.195 40.7222 126.516 42.2718 126.53 44.0194C126.516 46.5862 125.861 48.8117 124.563 50.6958C123.28 52.5663 121.423 54.0203 118.993 55.0579C116.576 56.0819 113.662 56.5939 110.248 56.5939C106.862 56.5939 103.913 56.0751 101.401 55.0375C98.9025 53.9998 96.9501 52.4639 95.5439 50.4295C94.1513 48.3816 93.4208 45.8489 93.3526 42.8316H101.934C102.029 44.2379 102.432 45.412 103.142 46.3541C103.865 47.2825 104.828 47.9856 106.029 48.4635C107.245 48.9277 108.617 49.1598 110.146 49.1598C111.648 49.1598 112.952 48.9414 114.057 48.5045C115.177 48.0676 116.044 47.46 116.658 46.6818C117.273 45.9036 117.58 45.0093 117.58 43.9989C117.58 43.0569 117.3 42.265 116.74 41.6233C116.194 40.9816 115.389 40.4355 114.324 39.9849C113.272 39.5344 111.982 39.1248 110.453 38.7562L105.886 37.6093C102.35 36.7492 99.5579 35.4043 97.5099 33.5748C95.462 31.7453 94.4448 29.2809 94.4585 26.1817C94.4448 23.6422 95.1206 21.4236 96.4859 19.5258C97.8649 17.628 99.7558 16.1467 102.159 15.0817C104.562 14.0168 107.292 13.4843 110.351 13.4843C113.464 13.4843 116.18 14.0168 118.502 15.0817C120.836 16.1467 122.652 17.628 123.949 19.5258C125.246 21.4236 125.915 23.6217 125.956 26.1202H117.457Z" fill="#E29500"/>
</svg>
