<svg width="28" height="28" viewBox="0 0 28 28" fill="none" xmlns="http://www.w3.org/2000/svg">
<g opacity="0.7" clip-path="url(#clip0_92_428)">
<path d="M14 2.42593C17.1447 2.42593 17.537 2.4375 18.7708 2.49537C20.0035 2.55324 20.8426 2.74653 21.581 3.03357C22.3449 3.32755 22.9884 3.72569 23.632 4.36806C24.2205 4.94664 24.6759 5.64652 24.9664 6.41898C25.2523 7.15625 25.4468 7.99653 25.5046 9.22917C25.559 10.463 25.5741 10.8553 25.5741 14C25.5741 17.1447 25.5625 17.537 25.5046 18.7708C25.4468 20.0035 25.2523 20.8426 24.9664 21.581C24.6767 22.3539 24.2212 23.054 23.632 23.6319C23.0532 24.2203 22.3534 24.6756 21.581 24.9664C20.8438 25.2523 20.0035 25.4468 18.7708 25.5046C17.537 25.559 17.1447 25.5741 14 25.5741C10.8553 25.5741 10.463 25.5625 9.22917 25.5046C7.99654 25.4468 7.15741 25.2523 6.41899 24.9664C5.64622 24.6765 4.94622 24.221 4.36806 23.6319C3.77941 23.0535 3.324 22.3536 3.03357 21.581C2.74654 20.8438 2.55325 20.0035 2.49538 18.7708C2.44098 17.537 2.42593 17.1447 2.42593 14C2.42593 10.8553 2.43751 10.463 2.49538 9.22917C2.55325 7.99537 2.74654 7.15741 3.03357 6.41898C3.3232 5.64604 3.77872 4.94597 4.36806 4.36806C4.94639 3.7792 5.64634 3.32376 6.41899 3.03357C7.15741 2.74653 7.99538 2.55324 9.22917 2.49537C10.463 2.44097 10.8553 2.42593 14 2.42593ZM14 8.21296C12.4652 8.21296 10.9932 8.82267 9.90795 9.90795C8.82267 10.9932 8.21297 12.4652 8.21297 14C8.21297 15.5348 8.82267 17.0068 9.90795 18.0921C10.9932 19.1773 12.4652 19.787 14 19.787C15.5348 19.787 17.0068 19.1773 18.0921 18.0921C19.1773 17.0068 19.787 15.5348 19.787 14C19.787 12.4652 19.1773 10.9932 18.0921 9.90795C17.0068 8.82267 15.5348 8.21296 14 8.21296ZM21.5232 7.92361C21.5232 7.53991 21.3707 7.17192 21.0994 6.9006C20.8281 6.62928 20.4601 6.47685 20.0764 6.47685C19.6927 6.47685 19.3247 6.62928 19.0534 6.9006C18.7821 7.17192 18.6296 7.53991 18.6296 7.92361C18.6296 8.30732 18.7821 8.6753 19.0534 8.94662C19.3247 9.21794 19.6927 9.37037 20.0764 9.37037C20.4601 9.37037 20.8281 9.21794 21.0994 8.94662C21.3707 8.6753 21.5232 8.30732 21.5232 7.92361ZM14 10.5278C14.9209 10.5278 15.8041 10.8936 16.4552 11.5448C17.1064 12.1959 17.4722 13.0791 17.4722 14C17.4722 14.9209 17.1064 15.8041 16.4552 16.4552C15.8041 17.1064 14.9209 17.4722 14 17.4722C13.0791 17.4722 12.1959 17.1064 11.5448 16.4552C10.8936 15.8041 10.5278 14.9209 10.5278 14C10.5278 13.0791 10.8936 12.1959 11.5448 11.5448C12.1959 10.8936 13.0791 10.5278 14 10.5278Z" fill="#808B94"/>
</g>
<defs>
<clipPath id="clip0_92_428">
<rect width="27.7778" height="27.7778" fill="white" transform="translate(0.111115 0.111115)"/>
</clipPath>
</defs>
</svg>
