<svg width="20" height="20" viewBox="0 0 20 20" fill="none" xmlns="http://www.w3.org/2000/svg">
<g opacity="0.7" clip-path="url(#clip0_224_1707)">
<path d="M2.5 2.5H17.5C17.721 2.5 17.933 2.5878 18.0893 2.74408C18.2455 2.90036 18.3333 3.11232 18.3333 3.33333V16.6667C18.3333 16.8877 18.2455 17.0996 18.0893 17.2559C17.933 17.4122 17.721 17.5 17.5 17.5H2.5C2.27899 17.5 2.06702 17.4122 1.91074 17.2559C1.75446 17.0996 1.66667 16.8877 1.66667 16.6667V3.33333C1.66667 3.11232 1.75446 2.90036 1.91074 2.74408C2.06702 2.5878 2.27899 2.5 2.5 2.5ZM16.6667 6.03167L10.06 11.9483L3.33333 6.01333V15.8333H16.6667V6.03167ZM3.75917 4.16667L10.0508 9.71833L16.2517 4.16667H3.75917Z" fill="white"/>
</g>
<defs>
<clipPath id="clip0_224_1707">
<rect width="20" height="20" fill="white"/>
</clipPath>
</defs>
</svg>
