<svg width="46" height="46" viewBox="0 0 46 46" fill="none" xmlns="http://www.w3.org/2000/svg">
<g clip-path="url(#clip0_92_494)">
<path d="M23 42.1667C12.4143 42.1667 3.83334 33.5858 3.83334 23C3.83334 12.4143 12.4143 3.83337 23 3.83337C33.5858 3.83337 42.1667 12.4143 42.1667 23C42.1667 33.5858 33.5858 42.1667 23 42.1667ZM16.2917 26.8334V30.6667H21.0833V34.5H24.9167V30.6667H26.8333C28.1042 30.6667 29.3229 30.1619 30.2216 29.2633C31.1202 28.3646 31.625 27.1459 31.625 25.875C31.625 24.6042 31.1202 23.3854 30.2216 22.4868C29.3229 21.5882 28.1042 21.0834 26.8333 21.0834H19.1667C18.9125 21.0834 18.6687 20.9824 18.489 20.8027C18.3093 20.623 18.2083 20.3792 18.2083 20.125C18.2083 19.8709 18.3093 19.6271 18.489 19.4474C18.6687 19.2677 18.9125 19.1667 19.1667 19.1667H29.7083V15.3334H24.9167V11.5H21.0833V15.3334H19.1667C17.8958 15.3334 16.6771 15.8382 15.7784 16.7368C14.8798 17.6354 14.375 18.8542 14.375 20.125C14.375 21.3959 14.8798 22.6146 15.7784 23.5133C16.6771 24.4119 17.8958 24.9167 19.1667 24.9167H26.8333C27.0875 24.9167 27.3313 25.0177 27.511 25.1974C27.6907 25.3771 27.7917 25.6209 27.7917 25.875C27.7917 26.1292 27.6907 26.373 27.511 26.5527C27.3313 26.7324 27.0875 26.8334 26.8333 26.8334H16.2917Z" fill="white"/>
</g>
<defs>
<clipPath id="clip0_92_494">
<rect width="46" height="46" fill="white"/>
</clipPath>
</defs>
</svg>
