<svg width="46" height="46" viewBox="0 0 46 46" fill="none" xmlns="http://www.w3.org/2000/svg">
<g clip-path="url(#clip0_92_491)">
<path d="M7.25075 5.41646L23 1.91663L38.7492 5.41646C39.1749 5.51107 39.5555 5.74798 39.8284 6.08807C40.1012 6.42816 40.2499 6.85112 40.25 7.28713V26.4289C40.2499 28.322 39.7823 30.1859 38.889 31.855C37.9956 33.5241 36.7039 34.9468 35.1287 35.9969L23 44.0833L10.8713 35.9969C9.29636 34.947 8.00488 33.5246 7.1115 31.8558C6.21812 30.1871 5.75045 28.3236 5.75 26.4308V7.28713C5.75007 6.85112 5.89881 6.42816 6.17165 6.08807C6.44449 5.74798 6.82513 5.51107 7.25075 5.41646ZM23 21.0833C24.2708 21.0833 25.4896 20.5785 26.3882 19.6798C27.2868 18.7812 27.7917 17.5625 27.7917 16.2916C27.7917 15.0208 27.2868 13.802 26.3882 12.9034C25.4896 12.0048 24.2708 11.5 23 11.5C21.7292 11.5 20.5104 12.0048 19.6118 12.9034C18.7132 13.802 18.2083 15.0208 18.2083 16.2916C18.2083 17.5625 18.7132 18.7812 19.6118 19.6798C20.5104 20.5785 21.7292 21.0833 23 21.0833ZM14.4268 30.6666H31.5732C31.3409 28.5552 30.3376 26.6038 28.7556 25.1863C27.1736 23.7689 25.1241 22.985 23 22.985C20.8759 22.985 18.8264 23.7689 17.2444 25.1863C15.6624 26.6038 14.6591 28.5552 14.4268 30.6666Z" fill="white"/>
</g>
<defs>
<clipPath id="clip0_92_491">
<rect width="46" height="46" fill="white"/>
</clipPath>
</defs>
</svg>
