<svg width="28" height="28" viewBox="0 0 28 28" fill="none" xmlns="http://www.w3.org/2000/svg">
<g opacity="0.7" clip-path="url(#clip0_92_418)">
<path d="M14 25.6667C7.55651 25.6667 2.33334 20.4435 2.33334 14C2.33334 7.5565 7.55651 2.33334 14 2.33334C20.4435 2.33334 25.6667 7.5565 25.6667 14C25.6667 20.4435 20.4435 25.6667 14 25.6667ZM10.3717 15.365L10.3868 15.3568L11.4018 18.7052C11.5325 19.068 11.7122 19.1333 11.9303 19.103C12.1497 19.0738 12.2652 18.956 12.4087 18.8183L13.7947 17.479L16.7697 19.6817C17.3133 19.9815 17.7042 19.8263 17.8395 19.1777L19.7727 10.052C19.9862 9.20267 19.6128 8.862 18.9537 9.13267L7.59851 13.5193C6.82384 13.8297 6.82851 14.2637 7.45851 14.4562L10.3717 15.3662V15.365Z" fill="#31A2FF"/>
</g>
<defs>
<clipPath id="clip0_92_418">
<rect width="28" height="28" fill="white"/>
</clipPath>
</defs>
</svg>
