<svg width="28" height="28" viewBox="0 0 28 28" fill="none" xmlns="http://www.w3.org/2000/svg">
<g opacity="0.7" clip-path="url(#clip0_92_423)">
<path d="M25.0451 7.63195C25.5741 9.69445 25.5741 14 25.5741 14C25.5741 14 25.5741 18.3056 25.0451 20.3681C24.7512 21.5081 23.8912 22.4051 22.8021 22.7083C20.8241 23.2593 14 23.2593 14 23.2593C14 23.2593 7.17941 23.2593 5.19792 22.7083C4.10417 22.4005 3.24538 21.5046 2.95487 20.3681C2.42593 18.3056 2.42593 14 2.42593 14C2.42593 14 2.42593 9.69445 2.95487 7.63195C3.24885 6.4919 4.1088 5.59491 5.19792 5.29167C7.17941 4.74075 14 4.74075 14 4.74075C14 4.74075 20.8241 4.74075 22.8021 5.29167C23.8958 5.59954 24.7546 6.49538 25.0451 7.63195ZM11.6852 18.0509L18.6296 14L11.6852 9.94908V18.0509Z" fill="#808B94"/>
</g>
<defs>
<clipPath id="clip0_92_423">
<rect width="27.7778" height="27.7778" fill="white" transform="translate(0.111115 0.111115)"/>
</clipPath>
</defs>
</svg>
